<svg width="35" height="35" viewBox="0 0 35 35" fill="none" xmlns="http://www.w3.org/2000/svg">
<g id="user-cicrle-svgrepo-com 2" clip-path="url(#clip0_634_793)">
<path id="Vector" d="M0.625 17.5C0.625 8.1802 8.1802 0.625 17.5 0.625C26.8199 0.625 34.375 8.1802 34.375 17.5C34.375 26.8199 26.8199 34.375 17.5 34.375C8.1802 34.375 0.625 26.8199 0.625 17.5Z" fill="#FCFF5F"/>
<path id="Vector_2" d="M17.5 19.25C21.6421 19.25 25 15.8921 25 11.75C25 7.60786 21.6421 4.25 17.5 4.25C13.3579 4.25 10 7.60786 10 11.75C10 15.8921 13.3579 19.25 17.5 19.25Z" fill="black"/>
<path id="Vector_3" fill-rule="evenodd" clip-rule="evenodd" d="M29.1637 27.2116C29.2728 27.3924 29.2394 27.6237 29.0861 27.7685C26.0634 30.6241 21.986 33 17.4995 33C13.0132 33 8.9357 30.6243 5.91307 27.7687C5.7597 27.6238 5.7264 27.3926 5.83547 27.2118C8.01832 23.5962 12.4223 21.125 17.4997 21.125C22.5768 21.125 26.9808 23.5961 29.1637 27.2116Z" fill="black"/>
</g>
<defs>
<clipPath id="clip0_634_793">
<rect width="35" height="35" fill="white"/>
</clipPath>
</defs>
</svg>
